Coordinates
version=1
nRows=14
nColumns=40
inDegrees=yes

Units are S.I. units (second, meters, Newtons, ...)
Angles are in degrees.

endheader
time	pelvis_tilt	pelvis_list	pelvis_rotation	pelvis_tx	pelvis_ty	pelvis_tz	hip_flexion_r	hip_adduction_r	hip_rotation_r	knee_angle_r	knee_angle_r_beta	ankle_angle_r	subtalar_angle_r	mtp_angle_r	hip_flexion_l	hip_adduction_l	hip_rotation_l	knee_angle_l	knee_angle_l_beta	ankle_angle_l	subtalar_angle_l	mtp_angle_l	lumbar_extension	lumbar_bending	lumbar_rotation	arm_flex_r	arm_add_r	arm_rot_r	elbow_flex_r	pro_sup_r	wrist_flex_r	wrist_dev_r	arm_flex_l	arm_add_l	arm_rot_l	elbow_flex_l	pro_sup_l	wrist_flex_l	wrist_dev_l
     16.43000000	     -2.67451653	     -2.55614579	      0.23709586	      0.87315432	      0.93416950	      0.41500129	     30.35389126	     -5.95579622	     -3.57342099	     71.85921282	     71.85921282	     -2.82494519	    -18.61849416	      7.72871649	     11.17592565	     -1.74337369	     -6.84065303	     19.55565279	     19.55565279	     13.04943568	    -13.16206571	      2.06679974	     -8.12767511	      5.19495267	      3.01544292	      1.90160313	    -11.50391027	    -11.23275598	     22.99209556	     46.83208486	      0.00000000	      0.00000000	     16.94667941	    -12.93944679	      0.46500215	     49.42874059	     46.50481264	      0.00000000	      0.00000000
     16.44200000	     -2.79793271	     -2.54320789	      0.20311512	      0.87216866	      0.93434540	      0.41465900	     31.42483247	     -5.99015583	     -4.23497131	     70.55875739	     70.55875739	     -1.79236397	    -18.77237269	      7.59792296	     10.68130475	     -1.69906557	     -6.92362546	     19.27033816	     19.27033816	     13.26325311	    -13.02259074	      2.01962256	     -8.06675897	      5.23989104	      2.40496015	      0.53004373	    -11.32240941	    -11.24450255	     22.49519849	     46.84150653	      0.00000000	      0.00000000	     18.06316840	    -13.47618138	      0.22405094	     49.99193203	     46.54260315	      0.00000000	      0.00000000
     16.45400000	     -2.74584395	     -2.55104716	      0.12783921	      0.87136576	      0.93491231	      0.41434261	     32.17170905	     -6.01614266	     -4.95839100	     69.01537198	     69.01537198	     -0.79745645	    -18.81526211	      7.98082030	      9.64299530	     -1.64902500	     -7.10091062	     18.33135039	     18.33135039	     13.42471450	    -12.48373124	      1.90272965	     -8.37656996	      5.27396691	      3.16645800	     -1.75228957	    -11.19633203	    -11.32381782	     21.85697376	     46.85862483	      0.00000000	      0.00000000	     19.27045346	    -13.15436277	     -0.51025461	     52.52278849	     46.65012432	      0.00000000	      0.00000000
     16.46600000	     -2.81649306	     -2.62652678	      0.07984929	      0.87047456	      0.93512756	      0.41410580	     32.94394026	     -5.86918413	     -5.60080580	     67.24198344	     67.24198344	      0.39662476	    -18.80954018	      9.11813342	      8.96031826	     -1.71281441	     -7.28938657	     17.77546402	     17.77546402	     13.50006185	    -12.08236331	      1.41901150	     -8.52361342	      5.42011997	      2.73739818	     -3.56213802	    -11.00473275	    -11.66655335	     22.40089378	     46.85713525	      0.00000000	      0.00000000	     19.47700348	    -13.42360794	     -2.07143782	     55.76739174	     46.83162060	      0.00000000	      0.00000000
     16.47800000	     -2.85238024	     -2.68379411	      0.02040077	      0.86959433	      0.93541689	      0.41395022	     33.48555784	     -5.72343713	     -6.22306788	     65.04838470	     65.04838470	      1.22419412	    -18.80036619	      9.32594257	      8.21406875	     -1.74230923	     -7.40307210	     17.15879035	     17.15879035	     13.62661374	    -11.71065291	      1.40497861	     -8.69496329	      5.55597545	      2.80617629	     -5.19589419	    -10.88637968	    -11.68001456	     21.86060933	     46.86884034	      0.00000000	      0.00000000	     20.54874762	    -13.46218477	     -2.58568763	     57.14244161	     46.90167745	      0.00000000	      0.00000000
     16.49000000	     -2.93063595	     -2.69762670	     -0.09127158	      0.86875696	      0.93542808	      0.41391251	     33.96934031	     -5.56379894	     -6.73395836	     62.54094039	     62.54094039	      1.94454051	    -18.72203156	      9.51895456	      7.57111562	     -1.74863001	     -7.67014392	     16.67126510	     16.67126510	     13.85877699	    -11.30722789	      1.18688421	     -8.77449032	      5.58805518	      2.79154329	     -6.81197396	    -10.74519451	    -11.80005606	     21.82927834	     46.87000598	      0.00000000	      0.00000000	     21.26654966	    -13.48103917	     -3.55655186	     59.31119445	     47.01662642	      0.00000000	      0.00000000
     16.50200000	     -3.10126862	     -2.77660007	     -0.16211335	      0.86780605	      0.93526870	      0.41395471	     34.36505015	     -5.30545915	     -7.24937559	     59.57301679	     59.57301679	      2.57245356	    -18.54004659	      9.58516215	      7.12673275	     -1.82116943	     -7.75835698	     16.32017065	     16.32017065	     14.04819161	    -11.10922196	      1.12634915	     -8.71775539	      5.77041595	      2.56292380	     -8.07806462	    -10.66198798	    -11.83353259	     21.51512210	     46.87529586	      0.00000000	      0.00000000	     22.14790256	    -13.77068778	     -3.94588376	     60.25635587	     47.06634227	      0.00000000	      0.00000000
     16.51400000	     -3.13494290	     -2.88817277	     -0.31498334	      0.86701216	      0.93522171	      0.41425049	     34.34680218	     -4.93900548	     -7.70421841	     55.99690430	     55.99690430	      2.54446999	    -18.33770616	      7.77388618	      6.46995051	     -1.98915142	     -8.18239677	     15.90358677	     15.90358677	     14.27559087	    -10.48957976	      0.74371981	     -8.97845506	      5.88116384	      2.38199407	     -9.56146233	    -10.64111086	    -12.04006823	     22.33246886	     46.85294625	      0.00000000	      0.00000000	     22.12222427	    -13.64047346	     -5.84661143	     63.72073290	     47.26376649	      0.00000000	      0.00000000
     16.52600000	     -3.29466819	     -3.00293723	     -0.44313711	      0.86612232	      0.93493948	      0.41464834	     34.33338587	     -4.50868079	     -8.07850366	     52.07422861	     52.07422861	      2.98838456	    -17.77885879	      7.62714682	      6.00662740	     -2.11901119	     -8.30028890	     15.55844961	     15.55844961	     14.49512756	    -10.32271521	      0.68295498	     -8.96997800	      6.04149269	      2.45415823	    -10.67914993	    -10.62764517	    -12.01631576	     21.96855440	     46.85758278	      0.00000000	      0.00000000	     22.96743954	    -13.65436129	     -6.13635615	     64.69703899	     47.30437678	      0.00000000	      0.00000000
     16.53800000	     -3.49881256	     -3.10414822	     -0.57481336	      0.86525909	      0.93448532	      0.41515287	     34.14295909	     -4.06700860	     -8.42662559	     47.69801346	     47.69801346	      3.39602328	    -16.80071851	      7.28424892	      5.61781155	     -2.25287364	     -8.46490137	     15.27152543	     15.27152543	     14.71429528	    -10.09583455	      0.57197113	     -8.90811796	      6.19062631	      2.54985610	    -11.70541573	    -10.58808956	    -12.01560801	     21.74366709	     46.85839315	      0.00000000	      0.00000000	     23.73531450	    -13.66712113	     -6.46919950	     65.80903164	     47.34933677	      0.00000000	      0.00000000
     16.55000000	     -3.57064624	     -3.15906326	     -0.73703890	      0.86461533	      0.93405439	      0.41575842	     33.25722803	     -3.66431249	     -8.92262838	     42.23106645	     42.23106645	      1.21024722	    -16.39120627	     -0.37666061	      5.07574177	     -2.37814094	     -8.90656752	     15.02486367	     15.02486367	     15.05814507	     -9.51682940	      0.34558893	     -9.09468742	      6.24777054	      2.34138305	    -12.59618710	    -10.63840128	    -11.68669265	     22.28003777	     46.81371396	      0.00000000	      0.00000000	     23.65765106	    -13.54287058	     -8.12993005	     68.75075507	     47.52014826	      0.00000000	      0.00000000
     16.56200000	     -3.86785140	     -3.26616205	     -0.87507006	      0.86388739	      0.93325431	      0.41653474	     32.69186565	     -3.11724698	     -9.25706319	     37.08117568	     37.08117568	      1.56628864	    -14.49552341	     -0.06840575	      4.81898059	     -2.52972483	     -9.02751699	     14.81855449	     14.81855449	     15.28677327	     -9.42658000	      0.21085459	     -8.87195688	      6.39727144	      2.41361226	    -13.29365161	    -10.64101441	    -11.66883676	     22.08626017	     46.81489215	      0.00000000	      0.00000000	     24.29232946	    -13.60279653	     -8.22971327	     69.45612691	     47.54093348	      0.00000000	      0.00000000
     16.57400000	     -3.86236190	     -3.36203545	     -0.99452847	      0.86351918	      0.93272686	      0.41734705	     31.50101203	     -2.63186396	     -9.85186547	     31.63640029	     31.63640029	      1.75625284	    -11.82026519	     -0.17236505	      4.19955505	     -2.68652715	     -9.29004698	     14.61522640	     14.61522640	     15.60074160	     -9.11178461	     -0.02254723	     -9.04563574	      6.50454018	      2.64611512	    -13.98229718	    -10.72125989	    -11.65803577	     21.97072899	     46.81476730	      0.00000000	      0.00000000	     24.81495739	    -13.43575866	     -8.41973428	     70.66822436	     47.57669626	      0.00000000	      0.00000000
     16.58600000	     -4.02485743	     -3.42485288	     -1.10105197	      0.86325637	      0.93181102	      0.41831230	     30.34501651	     -2.09581191	    -10.36241209	     26.18786647	     26.18786647	      1.70834233	     -9.11080950	      0.21505745	      3.77019032	     -2.80417462	     -9.44421453	     14.43222076	     14.43222076	     15.89439584	     -8.94381817	     -0.23459459	     -8.94136401	      6.58625578	      2.72793566	    -14.44861839	    -10.75766825	    -11.66767247	     21.89736559	     46.81591406	      0.00000000	      0.00000000	     25.17625407	    -13.39646025	     -8.57254465	     71.60792361	     47.60745646	      0.00000000	      0.00000000
